HIERARCHY
ROOT Hips
{
	OFFSET 0.000000 0.000000 0.000000 
	CHANNELS 6 Xposition Yposition Zposition Xrotation Yrotation Zrotation
	JOINT Spine
	{
		OFFSET 0.000000 1.722820 2.584230 
		CHANNELS 3 Xrotation Yrotation Zrotation
		JOINT Spine1
		{
			OFFSET 0.000000 0.598330 3.393290 
			CHANNELS 3 Xrotation Yrotation Zrotation
			JOINT Spine2
			{
				OFFSET 0.000000 0.300310 3.432520 
				CHANNELS 3 Xrotation Yrotation Zrotation
				JOINT Spine3
				{
					OFFSET 0.000000 0.000000 3.445640 
					CHANNELS 3 Xrotation Yrotation Zrotation
					JOINT Neck
					{
						OFFSET 0.000000 -1.292100 9.044790 
						CHANNELS 3 Xrotation Yrotation Zrotation
						JOINT Head
						{
							OFFSET 0.000000 -0.822700 4.665770 
							CHANNELS 3 Xrotation Yrotation Zrotation
							End Site
							{
								OFFSET 0.000000 0.000010 5.577620 
							}
						}
					}
					JOINT RightShoulder
					{
						OFFSET -1.175120 -1.958530 6.345670 
						CHANNELS 3 Xrotation Yrotation Zrotation
						JOINT RightArm
						{
							OFFSET -5.836450 0.000000 0.000000 
							CHANNELS 3 Xrotation Yrotation Zrotation
							JOINT RightForeArm
							{
								OFFSET -10.886420 0.000000 0.000000 
								CHANNELS 3 Xrotation Yrotation Zrotation
								JOINT RightHand
								{
									OFFSET -10.194950 0.000000 0.000000 
									CHANNELS 3 Xrotation Yrotation Zrotation
									JOINT RightHandEnd
									{
										OFFSET -2.735920 0.000000 0.000000 
										CHANNELS 3 Xrotation Yrotation Zrotation
										End Site
										{
											OFFSET -2.735920 0.000000 0.000000 
										}
									}
									JOINT RightHandThumb1
									{
										OFFSET -1.094370 -1.823950 -0.729580 
										CHANNELS 3 Yrotation Xrotation Zrotation
										End Site
										{
											OFFSET -2.642700 -0.708110 0.000000 
										}
									}
								}
							}
						}
					}
					JOINT LeftShoulder
					{
						OFFSET 1.175120 -1.958530 6.345670 
						CHANNELS 3 Xrotation Yrotation Zrotation
						JOINT LeftArm
						{
							OFFSET 5.836450 0.000000 0.000000 
							CHANNELS 3 Xrotation Yrotation Zrotation
							JOINT LeftForeArm
							{
								OFFSET 10.886420 0.000000 0.000000 
								CHANNELS 3 Xrotation Yrotation Zrotation
								JOINT LeftHand
								{
									OFFSET 10.194950 0.000000 0.000000 
									CHANNELS 3 Xrotation Yrotation Zrotation
									JOINT LeftHandEnd
									{
										OFFSET 2.735920 0.000000 0.000000 
										CHANNELS 3 Xrotation Yrotation Zrotation
										End Site
										{
											OFFSET 2.735920 0.000000 0.000000 
										}
									}
									JOINT LeftHandThumb1
									{
										OFFSET 1.094370 -1.823950 -0.729580 
										CHANNELS 3 Yrotation Xrotation Zrotation
										End Site
										{
											OFFSET 2.642700 -0.708110 0.000000 
										}
									}
								}
							}
						}
					}
				}
			}
		}
	}
	JOINT RightUpLeg
	{
		OFFSET -3.486200 0.000000 -1.018440 
		CHANNELS 3 Xrotation Yrotation Zrotation
		JOINT RightLeg
		{
			OFFSET 0.000010 0.000000 -16.688210 
			CHANNELS 3 Xrotation Yrotation Zrotation
			JOINT RightFoot
			{
				OFFSET 0.000010 0.000000 -16.775360 
				CHANNELS 3 Xrotation Yrotation Zrotation
				JOINT RightToeBase
				{
					OFFSET 0.000000 -4.945160 -1.799890 
					CHANNELS 3 Xrotation Yrotation Zrotation
					End Site
					{
						OFFSET 0.000000 -2.820300 -0.000000 
					}
				}
			}
		}
	}
	JOINT LeftUpLeg
	{
		OFFSET 3.486200 0.000000 -1.018440 
		CHANNELS 3 Xrotation Yrotation Zrotation
		JOINT LeftLeg
		{
			OFFSET 0.000010 0.000000 -16.688210 
			CHANNELS 3 Xrotation Yrotation Zrotation
			JOINT LeftFoot
			{
				OFFSET 0.000010 0.000000 -16.775360 
				CHANNELS 3 Xrotation Yrotation Zrotation
				JOINT LeftToeBase
				{
					OFFSET 0.000000 -4.945160 -1.799890 
					CHANNELS 3 Xrotation Yrotation Zrotation
					End Site
					{
						OFFSET 0.000000 -2.820300 -0.000000 
					}
				}
			}
		}
	}
}
MOTION
Frames: 6
Frame Time: 0.008333
39.483398 36.247002 -3.139300 -83.557503 2.094100 2.702300 1.871700 -1.765500 -0.345300 1.292900 -0.354700 -0.020500 1.532100 -0.801600 0.612100 -0.753400 0.007100 0.238000 -4.042900 -1.686800 -1.028800 -9.511800 5.026400 -1.971900 4.095500 -0.511400 1.622600 45.004700 -52.074600 43.583199 0.000000 0.000000 38.072399 1.531400 -6.962800 -6.169400 0.000000 -0.000000 0.000000 -0.000000 -0.000000 0.000000 4.432400 8.510100 -0.356400 25.390301 60.748001 -16.200500 -0.000000 -0.000000 -48.280800 2.782900 10.568400 10.927400 0.000000 -0.000000 -0.000000 0.000000 0.000000 0.000000 -3.573600 -0.291200 -13.653600 16.007299 0.000000 0.000000 -16.300800 -1.734900 -4.187500 -1.433600 0.000000 -0.000000 -9.350500 -8.111200 5.548600 24.801100 0.000000 0.000000 -19.892099 6.896100 -2.465500 -3.189000 0.000000 -0.000000 
39.516701 36.235001 -3.106500 -83.487099 2.097400 2.701700 1.874200 -1.725800 -0.342400 1.298200 -0.352900 -0.017300 1.552500 -0.772000 0.678500 -0.753300 0.014700 0.243300 -4.079600 -1.720700 -1.032600 -9.515400 5.006500 -2.052600 4.064100 -0.459400 1.618800 44.729900 -52.110199 43.349602 -0.000000 0.000000 38.282001 1.517000 -7.015400 -6.048700 -0.000000 0.000000 -0.000000 0.000000 0.000000 -0.000000 4.464200 8.425100 -0.429300 25.378300 60.719898 -16.359900 -0.000000 -0.000000 -48.658798 2.633800 10.560500 10.740100 0.000000 0.000000 -0.000000 -0.000000 -0.000000 0.000000 -3.636300 -0.218400 -13.676200 16.118099 0.000000 0.000000 -16.381701 -1.777900 -4.166800 -1.486400 0.000000 -0.000000 -9.482500 -8.060400 5.493500 25.044001 0.000000 0.000000 -19.995899 6.836200 -2.424600 -3.270900 0.000000 -0.000000 
39.551300 36.222000 -3.071700 -83.414703 2.094600 2.699300 1.874300 -1.680900 -0.338600 1.298400 -0.346500 -0.013600 1.570400 -0.743500 0.741300 -0.750800 0.021900 0.249700 -4.118600 -1.744000 -1.033200 -9.510100 4.983000 -2.122700 4.020600 -0.412900 1.613400 44.467800 -52.147800 43.104698 -0.000000 0.000000 38.504799 1.464500 -7.110300 -6.007700 -0.000000 0.000000 -0.000000 -0.000000 -0.000000 0.000000 4.459700 8.339400 -0.508200 25.387199 60.697300 -16.516001 -0.000000 -0.000000 -49.022499 2.492300 10.581700 10.575400 -0.000000 -0.000000 -0.000000 -0.000000 0.000000 -0.000000 -3.707300 -0.134200 -13.695500 16.250500 0.000000 0.000000 -16.471800 -1.837100 -4.146900 -1.573300 0.000000 -0.000000 -9.609300 -8.001800 5.442100 25.284401 0.000000 0.000000 -20.097700 6.781600 -2.386000 -3.365800 0.000000 -0.000000 
39.587101 36.207699 -3.034700 -83.341103 2.088000 2.695700 1.870800 -1.631600 -0.333500 1.293800 -0.335900 -0.009400 1.586600 -0.718200 0.797700 -0.745000 0.027200 0.256400 -4.154400 -1.755400 -1.032600 -9.514500 4.962700 -2.178800 3.954700 -0.365300 1.604100 44.238098 -52.187901 42.860901 -0.000000 0.000000 38.741402 1.362900 -7.250500 -6.052600 0.000000 0.000000 0.000000 0.000000 -0.000000 0.000000 4.407700 8.267700 -0.594600 25.443899 60.662601 -16.669901 -0.000000 -0.000000 -49.379700 2.350700 10.582000 10.419500 0.000000 -0.000000 0.000000 -0.000000 -0.000000 0.000000 -3.785100 -0.041300 -13.710500 16.403799 0.000000 0.000000 -16.572100 -1.910700 -4.129800 -1.689700 0.000000 -0.000000 -9.730300 -7.938600 5.395100 25.522600 0.000000 0.000000 -20.195900 6.740500 -2.351400 -3.480900 0.000000 -0.000000 
39.624298 36.192101 -2.995800 -83.264603 2.077700 2.690800 1.863600 -1.576800 -0.327400 1.284100 -0.322600 -0.005100 1.599800 -0.698200 0.846200 -0.735900 0.031300 0.264100 -4.181400 -1.756600 -1.032600 -9.544500 4.952000 -2.218100 3.871200 -0.316800 1.593500 44.040501 -52.225800 42.620701 -0.000000 0.000000 38.987202 1.269200 -7.407400 -6.142900 -0.000000 -0.000000 0.000000 -0.000000 -0.000000 0.000000 4.339900 8.205100 -0.681700 25.540100 60.616798 -16.852200 -0.000000 -0.000000 -49.722500 2.211300 10.556400 10.262500 -0.000000 0.000000 0.000000 0.000000 0.000000 0.000000 -3.873100 0.058800 -13.711900 16.579700 0.000000 0.000000 -16.684200 -1.995200 -4.125300 -1.830900 0.000000 -0.000000 -9.849200 -7.871200 5.355300 25.761299 0.000000 0.000000 -20.294201 6.707500 -2.322800 -3.607600 0.000000 -0.000000 
39.662899 36.175301 -2.954500 -83.188004 2.063100 2.684200 1.853900 -1.511600 -0.320000 1.272100 -0.305000 -0.000700 1.609000 -0.692000 0.882500 -0.723100 0.033600 0.273800 -4.203900 -1.746800 -1.031700 -9.591400 4.950200 -2.239100 3.773600 -0.266700 1.575000 43.886200 -52.244801 42.405300 -0.000000 0.000000 39.231499 1.247700 -7.553300 -6.239700 -0.000000 -0.000000 0.000000 -0.000000 0.000000 -0.000000 4.286700 8.149100 -0.758800 25.668900 60.560902 -17.094000 -0.000000 -0.000000 -50.044300 2.057300 10.489100 10.105500 0.000000 -0.000000 -0.000000 -0.000000 -0.000000 0.000000 -3.967700 0.165800 -13.692200 16.777800 0.000000 0.000000 -16.809500 -2.087900 -4.140600 -1.992200 0.000000 -0.000000 -9.961600 -7.799300 5.326500 26.000299 0.000000 0.000000 -20.396099 6.676700 -2.302300 -3.737500 0.000000 -0.000000 
